<?xml version="1.0" encoding="utf-8"?>
<svg viewBox="0 0 500 500" xmlns="http://www.w3.org/2000/svg">
  <rect x="-1.372" y="-0.499" width="501.713" height="499.962" style="stroke: rgb(0, 0, 0);"/>
  <g transform="matrix(1.452301025390625, 0, 0, 1.452301025390625, -115.63390350341797, -116.1305923461914)">
    <title>LOGO</title>
    <g style="pointer-events: none;">
      <title>Vinyl(O)</title>
      <ellipse style="fill-opacity: 0; pointer-events: none; stroke-width: 12px; stroke: rgb(255, 255, 255); fill: rgb(255, 255, 255);" cx="186.503" cy="213.422" rx="150" ry="150" transform="matrix(1, -0.000001, 0.000001, 1, 69.4963, 42.577991)">
        <title>BIG</title>
      </ellipse>
      <ellipse style="stroke-width: 12px; fill-opacity: 0; pointer-events: auto; stroke: rgb(255, 255, 255); fill: rgb(255, 255, 255);" cx="184.892" cy="215.57" rx="50" ry="50" transform="matrix(1, -0.000001, 0.000001, 1, 71.107538, 40.429744)">
        <title>MED</title>
      </ellipse>
      <ellipse style="stroke-width: 12px; fill-opacity: 0; pointer-events: none; stroke: rgb(255, 255, 255); fill: rgb(255, 255, 255);" cx="185.125" cy="215.57" rx="15" ry="15" transform="matrix(1, -0.000001, 0.000001, 1, 70.874849, 40.429744)">
        <title>LITL</title>
      </ellipse>
    </g>
    <g style="pointer-events: none;">
      <title>BRAS(L)</title>
      <rect style="pointer-events: none; stroke: rgb(255, 255, 255); fill: rgb(255, 255, 255);" x="100.278" y="100.62" width="50" height="16" rx="10" ry="10">
        <title>TOP</title>
      </rect>
      <rect style="pointer-events: none; stroke: rgb(255, 255, 255); fill: rgb(255, 255, 255);" x="216.436" y="122.498" width="155" height="16" rx="10" ry="10" transform="matrix(0, 1, -1, 0, 255.797989, -110.435966)"/>
      <rect style="pointer-events: none; stroke: rgb(255, 255, 255); fill: rgb(255, 255, 255);" x="69.818" y="122.498" width="50" height="16" rx="10" ry="10" transform="matrix(0.866025, 0.5, -0.5, 0.866025, 122.986493, 101.859069)">
        <title>L</title>
      </rect>
    </g>
    <g>
      <title>TETE(E)</title>
      <rect style="pointer-events: auto; stroke: rgb(255, 255, 255); fill: rgb(255, 255, 255);" x="64.232" y="91.874" width="46" height="12" rx="10" ry="10" transform="matrix(0.459949, -0.887945, 0.887945, 0.459949, 32.768206, 307.35463)">
        <title>BIG</title>
      </rect>
      <rect style="pointer-events: auto; stroke: rgb(255, 255, 255); fill: rgb(255, 255, 255);" x="39.098" y="76.561" width="28" height="10" rx="10" ry="10" transform="matrix(0.906279, 0.422679, -0.422679, 0.906279, 163.377928, 165.661758)">
        <title>MED</title>
      </rect>
      <rect style="pointer-events: auto; stroke: rgb(255, 255, 255); fill: rgb(255, 255, 255);" x="39.098" y="76.561" width="28" height="10" rx="10" ry="10" transform="matrix(0.906279, 0.422679, -0.422679, 0.906279, 148.565855, 178.933578)">
        <title>LITL</title>
      </rect>
      <rect style="pointer-events: auto; stroke: rgb(255, 255, 255); fill: rgb(255, 255, 255);" x="39.098" y="76.561" width="28" height="10" rx="10" ry="10" transform="matrix(0.906279, 0.422679, -0.422679, 0.906279, 146.010786, 199.606689)">
        <title>MED</title>
      </rect>
    </g>
  </g>
</svg>